<svg width="24" height="24" viewBox="0 0 24 24" fill="none" xmlns="http://www.w3.org/2000/svg">
<path fill-rule="evenodd" clip-rule="evenodd" d="M11.9999 1.94337C12.6942 1.94337 13.257 2.50618 13.257 3.20045L13.257 10.7429L20.7995 10.7429C21.4938 10.7429 22.0566 11.3057 22.0566 12C22.0566 12.6943 21.4938 13.2571 20.7995 13.2571H13.257L13.257 20.7996C13.257 21.4938 12.6942 22.0566 11.9999 22.0566C11.3057 22.0566 10.7429 21.4938 10.7429 20.7996L10.7429 13.2571L3.2004 13.2571C2.50613 13.2571 1.94332 12.6943 1.94332 12C1.94332 11.3057 2.50613 10.7429 3.2004 10.7429L10.7429 10.7429L10.7429 3.20045C10.7429 2.50618 11.3057 1.94337 11.9999 1.94337Z" fill="#000000"/>
</svg>
