<?xml version="1.0" encoding="utf-8"?>
<!-- Svg Vector Icons : http://www.onlinewebfonts.com/icon -->
<!DOCTYPE svg PUBLIC "-//W3C//DTD SVG 1.1//EN" "http://www.w3.org/Graphics/SVG/1.1/DTD/svg11.dtd">
<svg version="1.1" xmlns="http://www.w3.org/2000/svg" xmlns:xlink="http://www.w3.org/1999/xlink" x="0px" y="0px" viewBox="0 0 1000 1000" enable-background="new 0 0 1000 1000" xml:space="preserve" fill="url(#ffflux-gradient)">
<linearGradient gradientTransform="rotate(314, 0.5, 0.5)" x1="50%" y1="0%" x2="50%" y2="100%" id="ffflux-gradient"><stop stop-color="hsl(262, 96%, 38%)" stop-opacity="1" offset="0%"></stop><stop stop-color="hsl(254, 65%, 19%)" stop-opacity="1" offset="100%"></stop></linearGradient>
<metadata> Svg Vector Icons : http://www.onlinewebfonts.com/icon </metadata>
<g><g><g id="_x32_4"><g><path d="M838.4,191.3c-25.6-33.7-62.8-55.4-104.7-61.1l-39.3-5.4C692.8,61.3,640.7,10,576.8,10H360.2c-63.3,0-115,50.3-117.5,113.1h-94.4c-5.4,0-10.6,2.3-14.1,6.4c-3.6,4-5.2,9.5-4.5,14.8l74.8,598.8l-74,222.1c-1.9,5.8-1,12.1,2.6,17c3.5,4.9,9.2,7.8,15.3,7.8h527.5c0.2,0,0.5,0,0.7,0c10.4,0,18.8-8.4,18.8-18.8c0-3.9-1.2-7.6-3.2-10.6l-72.5-217.5L637.5,600c111.1-6.1,204.4-91,219.6-202.5l12.1-88.9C874.9,266.6,864,225,838.4,191.3z M360.1,47.7h216.7c42.6,0,77.5,33.4,79.9,75.4H280.2C282.7,81.1,317.6,47.7,360.1,47.7z M649.6,952.3H174.3l62.8-188.5h349.6L649.6,952.3z M583.7,726.2H240.2l-70.7-565.4h484.8L583.7,726.2z M835.6,304l-12.1,88.9c-12.7,93.4-89.5,164.9-181.8,172.8l50.8-406.9l36.5,5c32.9,4.5,62.1,21.6,82.3,48C831.5,238.3,840.1,271,835.6,304z M573.2,199.7c-1-1.7-2.2-3.1-3.9-5.1c-5.8-8.3-17-10.6-25.5-5.1L347.7,313.7c-7.9,5-9.8,17.3-6,25.9c0.4,0.8,2.2,4.5,2.7,5.3c25,39.5,67.8,63,114.6,63c25.7,0,50.7-7.3,72.4-21.1C594.5,346.8,613.3,262.8,573.2,199.7z M432.6,365.8c-18.7-5.1-35.9-15.4-48.5-30.6l54.3-34.4L432.6,365.8z M511.2,354.9c-12.6,8-26.7,12.6-41.1,14.1l6.9-76.9l56.9,42.8C527.6,342.5,520.1,349.3,511.2,354.9z M552.2,301.3l-52.4-39.4l48-30.4C558.1,253.9,559.2,278.8,552.2,301.3z M355.4,839.2h-75.4c-10.4,0-18.8,8.4-18.8,18.8c0,10.4,8.4,18.8,18.8,18.8h75.4c10.4,0,18.8-8.4,18.8-18.8C374.3,847.7,365.8,839.2,355.4,839.2z M394.7,433.2c-72.3,0-131.1,58.8-131.1,131.1c0,72.3,58.8,131.1,131.1,131.1c72.3,0,131.1-58.8,131.1-131.1C525.8,492.1,467,433.2,394.7,433.2z M394.7,657.8c-51.5,0-93.4-41.9-93.4-93.4c0-51.5,41.9-93.4,93.4-93.4c51.5,0,93.4,41.9,93.4,93.4C488.1,615.9,446.2,657.8,394.7,657.8z M383.9,569.2c-13.1,0-23.7,10.6-23.7,23.7c0,13.1,10.6,23.7,23.7,23.7s23.6-10.6,23.6-23.7C407.5,579.8,396.9,569.2,383.9,569.2z"/></g></g></g><g></g><g></g><g></g><g></g><g></g><g></g><g></g><g></g><g></g><g></g><g></g><g></g><g></g><g></g><g></g></g>
</svg>