<svg width="16" height="16" viewBox="0 0 16 16" fill="none" xmlns="http://www.w3.org/2000/svg">
<path fill-rule="evenodd" clip-rule="evenodd" d="M15.1112 0.888698C15.6021 1.37962 15.6021 2.17555 15.1112 2.66647L9.77784 7.9998L15.1112 13.3331C15.6021 13.8241 15.6021 14.62 15.1112 15.1109C14.6203 15.6018 13.8243 15.6018 13.3334 15.1109L8.00006 9.77758L2.66672 15.1109C2.1758 15.6018 1.37986 15.6018 0.888943 15.1109C0.398023 14.62 0.398021 13.8241 0.888941 13.3331L6.22229 7.9998L0.888961 2.66647C0.398041 2.17555 0.398043 1.37962 0.888963 0.888698C1.37988 0.397778 2.17582 0.397778 2.66674 0.888698L8.00006 6.22202L13.3334 0.888698C13.8243 0.397778 14.6202 0.397778 15.1112 0.888698Z" fill="white"/>
</svg>
