<svg width="24" height="22" viewBox="0 0 24 22" fill="none" xmlns="http://www.w3.org/2000/svg">
<path d="M22.0501 2.4526C20.7908 1.19325 19.1167 0.500244 17.3358 0.500244C15.5545 0.500244 13.8803 1.19325 12.6206 2.4526L12 3.07327L11.3794 2.4526C10.1201 1.19325 8.44547 0.500244 6.66462 0.500244C4.88384 0.500244 3.20909 1.19325 1.94987 2.4526C-0.649956 5.05267 -0.649956 9.2831 1.94987 11.8822L11.2658 21.1981C11.4181 21.351 11.6077 21.4446 11.8058 21.4806C11.8723 21.4938 11.9391 21.4998 12.006 21.4998C12.2695 21.4998 12.5335 21.3993 12.7342 21.1981L22.0501 11.8822C24.6501 9.2831 24.6501 5.05267 22.0501 2.4526Z" fill="#FF3078"/>
</svg>
