<svg width="24" height="22" viewBox="0 0 24 22" fill="none" xmlns="http://www.w3.org/2000/svg">
<path d="M22.05 2.45284C20.7907 1.1935 19.1167 0.500488 17.3357 0.500488C15.5545 0.500488 13.8802 1.1935 12.6205 2.45284L11.9999 3.07352L11.3794 2.45284C10.12 1.1935 8.44541 0.500488 6.66456 0.500488C4.88378 0.500488 3.20903 1.1935 1.94981 2.45284C-0.650017 5.05291 -0.650017 9.28335 1.94981 11.8824L11.2657 21.1984C11.418 21.3512 11.6076 21.4449 11.8058 21.4809C11.8722 21.494 11.939 21.5001 12.006 21.5001C12.2695 21.5001 12.5335 21.3996 12.7342 21.1984L22.0501 11.8824C24.65 9.28335 24.65 5.05291 22.05 2.45284ZM20.5936 10.426L12 19.0197L3.40625 10.426C1.60957 8.62961 1.60957 5.70672 3.40625 3.90934C4.27653 3.03919 5.43403 2.56057 6.66456 2.56057C7.89522 2.56057 9.05241 3.03919 9.92237 3.90934L11.2717 5.25913C11.6585 5.64535 12.3419 5.64535 12.7286 5.25913L14.0774 3.90934C14.9475 3.03919 16.1047 2.56057 17.3358 2.56057C18.5664 2.56057 19.7235 3.03919 20.5936 3.90934C22.3904 5.70672 22.3904 8.62954 20.5936 10.426Z" fill="#00FFB2"/>
</svg>
