<svg width="28" height="24" viewBox="0 0 28 24" fill="none" xmlns="http://www.w3.org/2000/svg">
<path d="M0.9672 14.2985H3.2479V23.0617C3.2479 23.5781 3.68775 24.0006 4.22534 24.0006H10.9045C11.4421 24.0006 11.8819 23.5781 11.8819 23.0617V16.6458H15.9546V23.0617C15.9546 23.5781 16.3944 24.0006 16.932 24.0006H23.2854C23.8229 24.0006 24.2628 23.5781 24.2628 23.0617V14.2985H27.0322C27.4232 14.2985 27.7816 14.0637 27.9282 13.7195C28.0748 13.3752 27.9933 12.9684 27.7164 12.7023L14.9771 0.293031C14.6024 -0.0669048 13.9834 -0.082535 13.6087 0.2774L0.299323 12.6867C0.00609211 12.9527 -0.0753801 13.3596 0.0712354 13.7195C0.217851 14.0794 0.576225 14.2985 0.9672 14.2985ZM14.2603 2.28038L24.6863 12.4206H23.2853C22.7477 12.4206 22.3079 12.8432 22.3079 13.3596V22.1228H17.9094V15.7068C17.9094 15.1904 17.4696 14.7679 16.932 14.7679H10.9045C10.3669 14.7679 9.92707 15.1904 9.92707 15.7068V22.1228H5.20278V13.3596C5.20278 12.8432 4.76293 12.4206 4.22534 12.4206H3.37825L14.2603 2.28038Z" fill="#E5E5E5"/>
</svg>
