<svg width="24" height="24" viewBox="0 0 24 24" fill="none" xmlns="http://www.w3.org/2000/svg">
<path d="M12.9999 5.99994C12.9999 6.55219 12.5522 6.99988 11.9999 6.99988C11.4477 6.99988 11 6.55219 11 5.99994C11 5.44769 11.4477 5 11.9999 5C12.5522 5 12.9999 5.44769 12.9999 5.99994Z" fill="#FFFFFF"/>
<path d="M12 24C5.38293 24 0 18.6171 0 12C0 5.38293 5.38293 0 12 0C18.6171 0 24 5.38293 24 12C24 18.6171 18.6171 24 12 24ZM12 1.5C6.21002 1.5 1.5 6.21002 1.5 12C1.5 17.79 6.21002 22.5 12 22.5C17.79 22.5 22.5 17.79 22.5 12C22.5 6.21002 17.79 1.5 12 1.5Z" fill="#FFFFFF"/>
<rect x="11" y="9" width="2" height="10" fill="#FFFFFF"/>
</svg>
