<svg width="20" height="20" viewBox="0 0 20 20" fill="none" xmlns="http://www.w3.org/2000/svg">
<path d="M13.1248 1.66699H6.87484C3.9988 1.66699 1.6665 3.99928 1.6665 6.87533V13.1253C1.6665 16.0014 3.9988 18.3337 6.87484 18.3337H13.1248C16.0009 18.3337 18.3332 16.0014 18.3332 13.1253V6.87533C18.3332 3.99928 16.0009 1.66699 13.1248 1.66699ZM16.7707 13.1253C16.7707 15.1357 15.1353 16.7712 13.1248 16.7712H6.87484C4.86442 16.7712 3.229 15.1357 3.229 13.1253V6.87533C3.229 4.86491 4.86442 3.22949 6.87484 3.22949H13.1248C15.1353 3.22949 16.7707 4.86491 16.7707 6.87533V13.1253Z" fill="url(#paint0_linear)"/>
<path d="M10.0002 5.83301C7.69912 5.83301 5.8335 7.69863 5.8335 9.99967C5.8335 12.3007 7.69912 14.1663 10.0002 14.1663C12.3012 14.1663 14.1668 12.3007 14.1668 9.99967C14.1668 7.69863 12.3012 5.83301 10.0002 5.83301ZM10.0002 12.6038C8.56475 12.6038 7.396 11.4351 7.396 9.99967C7.396 8.56322 8.56475 7.39551 10.0002 7.39551C11.4356 7.39551 12.6043 8.56322 12.6043 9.99967C12.6043 11.4351 11.4356 12.6038 10.0002 12.6038Z" fill="url(#paint1_linear)"/>
<path d="M14.479 6.07623C14.7857 6.07623 15.0342 5.82766 15.0342 5.52103C15.0342 5.21439 14.7857 4.96582 14.479 4.96582C14.1724 4.96582 13.9238 5.21439 13.9238 5.52103C13.9238 5.82766 14.1724 6.07623 14.479 6.07623Z" fill="url(#paint2_linear)"/>
<defs>
<linearGradient id="paint0_linear" x1="3.19218" y1="16.8081" x2="16.8075" y2="3.19257" gradientUnits="userSpaceOnUse">
<stop stop-color="#FFC107"/>
<stop offset="0.507" stop-color="#F44336"/>
<stop offset="0.99" stop-color="#9C27B0"/>
</linearGradient>
<linearGradient id="paint1_linear" x1="7.05396" y1="12.9459" x2="12.9464" y2="7.05348" gradientUnits="userSpaceOnUse">
<stop stop-color="#FFC107"/>
<stop offset="0.507" stop-color="#F44336"/>
<stop offset="0.99" stop-color="#9C27B0"/>
</linearGradient>
<linearGradient id="paint2_linear" x1="14.0865" y1="5.91368" x2="14.8716" y2="5.12847" gradientUnits="userSpaceOnUse">
<stop stop-color="#FFC107"/>
<stop offset="0.507" stop-color="#F44336"/>
<stop offset="0.99" stop-color="#9C27B0"/>
</linearGradient>
</defs>
</svg>
