<?xml version="1.0" standalone="no"?>
<!DOCTYPE svg PUBLIC "-//W3C//DTD SVG 20010904//EN"
 "http://www.w3.org/TR/2001/REC-SVG-20010904/DTD/svg10.dtd">
<svg version="1.0" xmlns="http://www.w3.org/2000/svg"
 width="773.000000pt" height="159.000000pt" viewBox="0 0 773.000000 159.000000"
 preserveAspectRatio="xMidYMid meet">

<g transform="translate(0.000000,159.000000) scale(0.100000,-0.100000)"
fill="#ffffff" stroke="none">
<path d="M3800 1495 c-8 -10 -31 -15 -65 -15 -74 0 -85 -6 -85 -46 l0 -34 159
0 c96 0 162 4 166 10 4 7 -50 10 -155 10 -148 0 -161 1 -158 18 3 14 16 18 68
20 44 2 67 8 73 18 11 19 67 19 67 -1 0 -12 14 -15 70 -15 l70 0 0 -64 0 -65
43 -3 c35 -3 43 -7 45 -27 6 -37 -29 -164 -51 -188 -26 -29 -16 -42 11 -15 12
12 29 58 43 115 26 109 22 123 -40 133 l-36 6 3 49 c5 68 -6 79 -83 79 -47 0
-64 4 -69 15 -3 9 -18 15 -34 15 -16 0 -35 -7 -42 -15z"/>
<path d="M3622 1369 c-25 -9 -24 -13 14 -64 15 -20 24 -51 28 -95 17 -169 14
-160 52 -160 31 0 34 3 34 30 0 28 3 30 36 30 21 0 33 4 29 10 -3 6 -19 10
-36 10 -27 0 -29 3 -29 35 0 32 2 35 29 35 17 0 33 5 36 10 4 6 -8 10 -29 10
-35 0 -36 1 -36 40 0 39 1 40 36 40 21 0 33 4 29 10 -3 6 -19 10 -35 10 -25 0
-29 4 -33 33 -2 17 -5 -39 -5 -125 l-2 -158 -23 0 c-23 0 -24 4 -34 103 -7 80
-15 111 -31 135 -26 35 -28 52 -7 52 8 0 15 5 15 10 0 12 -7 12 -38 -1z"/>
<path d="M3995 1213 c-4 -48 -11 -110 -14 -138 l-6 -50 -148 -3 -148 -3 3 -27
3 -27 146 -3 147 -3 11 -47 c7 -26 14 -55 17 -64 5 -17 -7 -18 -165 -18 -190
0 -185 -2 -160 69 6 18 9 35 5 38 -7 7 -22 -32 -31 -81 l-7 -36 190 0 190 0
-20 80 -20 80 -144 0 c-121 0 -144 2 -144 15 0 13 23 15 145 15 80 0 145 3
145 8 0 8 17 166 25 235 3 27 2 47 -4 47 -5 0 -12 -39 -16 -87z"/>
<path d="M3815 920 c-3 -5 -24 -10 -45 -10 -21 0 -42 -4 -45 -10 -4 -6 12 -10
42 -10 37 0 51 4 61 20 7 11 8 20 3 20 -6 0 -13 -4 -16 -10z"/>
<path d="M3847 890 c-13 -16 -14 -20 -2 -20 7 0 17 5 20 10 3 6 24 10 46 10
24 0 38 4 34 10 -11 18 -79 11 -98 -10z"/>
<path d="M1580 860 c0 -20 7 -20 935 -20 928 0 935 0 935 20 0 20 -7 20 -935
20 -928 0 -935 0 -935 -20z"/>
<path d="M4270 860 c0 -20 7 -20 935 -20 928 0 935 0 935 20 0 20 -7 20 -935
20 -928 0 -935 0 -935 -20z"/>
<path d="M165 679 c-4 -6 -4 -13 0 -17 9 -9 7381 -9 7390 0 4 4 4 11 0 17 -9
15 -7381 15 -7390 0z"/>
<path d="M932 521 c-50 -13 -106 -57 -132 -103 -18 -32 -25 -62 -28 -125 -4
-74 -2 -88 22 -137 30 -61 79 -100 146 -115 144 -33 277 16 323 118 15 33 20
67 20 121 0 161 -75 239 -236 246 -45 2 -97 -1 -115 -5z m171 -141 c24 -27 27
-38 27 -100 0 -63 -3 -73 -29 -102 -26 -29 -35 -33 -77 -32 -38 1 -52 6 -70
27 -41 48 -43 160 -3 211 36 45 108 43 152 -4z"/>
<path d="M1524 521 c-51 -13 -103 -50 -132 -94 -25 -38 -27 -48 -27 -148 0
-103 1 -109 30 -150 18 -26 50 -53 80 -68 42 -22 63 -26 140 -26 77 0 98 4
140 26 92 47 133 148 113 277 -11 72 -45 123 -103 158 -37 21 -61 27 -128 30
-45 2 -96 0 -113 -5z m154 -124 c47 -37 57 -151 20 -207 -40 -58 -121 -61
-162 -6 -17 21 -21 42 -21 96 0 76 21 119 66 131 28 8 79 1 97 -14z"/>
<path d="M200 280 l0 -240 75 0 75 0 0 90 0 90 90 0 90 0 0 -90 0 -90 75 0 75
0 0 240 0 240 -75 0 -74 0 -3 -87 -3 -88 -87 -3 -88 -3 0 91 0 90 -75 0 -75 0
0 -240z"/>
<path d="M1960 280 l0 -240 80 0 80 0 0 54 c0 51 3 57 37 85 21 17 41 31 44
31 4 0 29 -38 55 -85 l48 -85 88 0 c69 0 88 3 82 13 -4 6 -43 70 -87 140 -70
114 -78 130 -65 145 8 9 47 54 87 100 l73 82 -96 0 -95 0 -83 -99 -83 -99 -3
99 -3 99 -79 0 -80 0 0 -240z"/>
<path d="M2600 293 c-46 -125 -85 -234 -88 -241 -3 -10 13 -12 74 -10 l78 3
10 33 9 32 84 0 84 0 15 -35 14 -35 79 0 79 0 -87 238 -87 237 -90 3 -91 3
-83 -228z m198 12 c12 -41 22 -79 22 -85 0 -5 -22 -10 -50 -10 -29 0 -50 4
-50 11 0 21 43 159 50 159 3 0 16 -34 28 -75z"/>
<path d="M3100 280 l0 -240 75 0 75 0 0 90 0 90 90 0 90 0 0 -90 0 -90 75 0
75 0 0 240 0 240 -75 0 -75 0 0 -90 0 -91 -87 3 -88 3 -3 88 -3 87 -74 0 -75
0 0 -240z"/>
<path d="M3870 280 l0 -240 180 0 c198 0 235 8 266 55 37 57 13 154 -44 180
-27 12 -28 22 -2 30 48 15 69 109 35 161 -30 46 -68 54 -260 54 l-175 0 0
-240z m288 128 c16 -16 15 -53 -2 -67 -9 -7 -38 -11 -73 -9 -55 3 -58 4 -61
31 -6 50 2 57 66 57 32 0 63 -5 70 -12z m17 -218 l0 -35 -77 -3 -78 -3 0 41 0
41 78 -3 77 -3 0 -35z"/>
<path d="M4420 280 l0 -240 200 0 200 0 0 60 0 60 -125 0 -125 0 0 180 0 180
-75 0 -75 0 0 -240z"/>
<path d="M4890 280 l0 -240 210 0 210 0 0 55 0 54 -132 3 -133 3 0 35 0 35
113 3 112 3 0 54 0 55 -116 0 -115 0 3 33 3 32 133 3 132 3 0 54 0 55 -210 0
-210 0 0 -240z"/>
<path d="M5400 280 l0 -240 70 0 69 0 3 117 3 117 100 -117 100 -116 68 -1 67
0 0 240 0 240 -70 0 -69 0 -3 -117 -3 -117 -99 117 -98 117 -69 0 -69 0 0
-240z"/>
<path d="M5990 281 l0 -241 133 0 c166 0 220 14 270 69 41 46 57 93 57 171 0
107 -34 171 -114 213 -36 18 -61 22 -193 25 l-153 4 0 -241z m247 119 c17 -6
36 -22 44 -36 14 -28 18 -113 6 -156 -9 -34 -53 -58 -107 -58 l-40 0 0 130 0
130 34 0 c18 0 47 -5 63 -10z"/>
<path d="M6540 280 l0 -240 210 0 210 0 0 55 0 55 -135 0 -135 0 0 40 0 40
115 0 115 0 0 55 0 55 -115 0 -115 0 0 35 0 35 135 0 135 0 0 55 0 55 -210 0
-210 0 0 -240z"/>
<path d="M7050 280 l0 -240 75 0 75 0 0 90 0 90 30 0 c28 0 33 -7 75 -90 l45
-90 85 0 84 0 -52 101 c-41 79 -49 102 -38 107 29 10 60 51 71 93 10 37 9 50
-7 89 -14 35 -28 50 -63 68 -41 20 -58 22 -212 22 l-168 0 0 -240z m288 118
c7 -7 12 -21 12 -33 0 -35 -20 -45 -87 -45 l-63 0 0 45 0 45 63 0 c36 0 68 -5
75 -12z"/>
</g>
</svg>
