<svg width="22" height="24" viewBox="0 0 22 24" fill="none" xmlns="http://www.w3.org/2000/svg">
<path d="M21.1044 2.91254H17.8796L18.0772 1.42265C18.1009 1.23296 17.9982 0.687604 17.4172 0.667859H12.837C12.8409 0.300338 12.5446 0 12.1771 0H7.46634C7.09882 0 6.79848 0.296364 6.79848 0.667859H0.886422C0.0881088 0.778506 0.19087 1.47803 0.321324 1.68349L2.06014 4.49724L3.6251 16.8628L1.58589 23.1266C1.5187 23.3282 1.53056 23.9407 2.21817 24H17.4212C17.6346 24 18.2077 23.8024 18.0535 23.1266L16.0064 16.8628L17.6978 4.24037H20.4325V12.5671C20.4325 12.9346 20.7289 13.2349 21.1004 13.2349C21.4718 13.2349 21.7682 12.9385 21.7682 12.5671V3.58046C21.7723 3.21294 21.4719 2.91254 21.1044 2.91254ZM16.5004 22.6682H3.14296L4.79485 17.5939H14.8486L16.5004 22.6682ZM14.7458 16.2621H4.89761L4.15071 10.3935H4.74747C5.11499 10.3935 5.41533 10.0971 5.41533 9.72567C5.41533 9.35815 5.11896 9.05781 4.74747 9.05781H3.98076L3.81082 7.72601H5.41136C5.77888 7.72601 6.07921 7.42965 6.07921 7.05815C6.07921 6.68666 5.78279 6.39029 5.41136 6.39029H3.64087L3.36028 4.18908C3.34445 4.0942 3.31682 4.00336 3.2654 3.92432L2.07989 1.99178H16.6546L14.7458 16.2621Z" fill="#E5E5E5"/>
</svg>
