<svg width="50" height="50" viewBox="0 0 54 54" fill="none" xmlns="http://www.w3.org/2000/svg">
<g filter="url(#filter0_dd)">
<path d="M50.8437 20.4901C50.8437 14.354 45.8535 9.36202 39.7196 9.36202C39.4531 9.36202 39.184 9.37204 38.9137 9.39224C36.2741 5.42376 31.8024 3 27 3C22.1977 3 17.7259 5.42424 15.0864 9.39224C14.816 9.37204 14.547 9.36202 14.2804 9.36202C8.14647 9.36202 3.15625 14.354 3.15625 20.4901C3.15625 26.088 7.31043 30.7314 12.6966 31.5029V46.8819C12.6966 49.1527 14.5439 51 16.8146 51H37.1853C39.4562 51 41.3033 49.1526 41.3033 46.8819V31.5029C46.6897 30.7314 50.8437 26.0878 50.8437 20.4901ZM37.1853 47.8322H16.8148C16.2998 47.8322 15.8645 47.3969 15.8645 46.8817V31.5044C17.4163 31.2846 18.8896 30.7413 20.2186 29.8963C22.257 30.9989 24.5754 31.6177 27 31.6177C29.4245 31.6177 31.7428 30.9989 33.7812 29.8965C35.1105 30.7413 36.584 31.2846 38.1356 31.5044V46.8817C38.1356 47.3969 37.7004 47.8322 37.1853 47.8322ZM39.7196 28.4499C38.6535 28.4499 37.6228 28.2415 36.6651 27.8412C38.5927 26.0741 40.0498 23.7772 40.7815 21.1375C41.015 20.2945 40.5211 19.4217 39.6781 19.188C38.835 18.9544 37.9624 19.4485 37.7285 20.2913C36.3975 25.095 31.9857 28.4499 27 28.4499C22.0143 28.4499 17.6026 25.095 16.2714 20.2913C16.0379 19.4483 15.1655 18.9544 14.3218 19.188C13.4788 19.4215 12.9849 20.2945 13.2185 21.1375C13.9499 23.7772 15.4072 26.0743 17.3348 27.8412C16.3771 28.2415 15.3465 28.4499 14.2804 28.4499C9.89322 28.4499 6.32409 24.8791 6.32409 20.4901C6.32409 16.1009 9.89338 12.5299 14.2804 12.5299C14.7239 12.5299 15.1805 12.5696 15.6375 12.6478C16.2973 12.7603 16.9579 12.4463 17.286 11.8622C19.2586 8.34982 22.9807 6.16784 26.9998 6.16784C31.0189 6.16784 34.7411 8.34998 36.7139 11.8624C37.0418 12.4465 37.7022 12.7605 38.3624 12.6478C38.8194 12.5696 39.276 12.5299 39.7193 12.5299C44.1064 12.5299 47.6755 16.1009 47.6755 20.4901C47.676 24.8791 44.1067 28.4499 39.7196 28.4499Z" fill="white"/>
<path d="M38.872 9.41993L38.8882 9.44428L38.9174 9.4421C39.1865 9.42199 39.4544 9.41202 39.7196 9.41202C45.8258 9.41202 50.7937 14.3816 50.7937 20.4901C50.7937 26.0626 46.6583 30.6854 41.2962 31.4535L41.2533 31.4596V31.5029V46.8819C41.2533 49.125 39.4286 50.95 37.1853 50.95H16.8146C14.5715 50.95 12.7466 49.1251 12.7466 46.8819V31.5029V31.4596L12.7037 31.4535C7.34176 30.6854 3.20625 26.0627 3.20625 20.4901C3.20625 14.3816 8.1741 9.41202 14.2804 9.41202C14.5457 9.41202 14.8136 9.42199 15.0827 9.4421L15.1119 9.44428L15.1281 9.41993C17.7584 5.46576 22.2146 3.05 27 3.05C31.7855 3.05 36.2417 5.46528 38.872 9.41993ZM15.8574 31.4549L15.8145 31.461V31.5044V46.8817C15.8145 47.4245 16.2722 47.8822 16.8148 47.8822H37.1853C37.728 47.8822 38.1856 47.4245 38.1856 46.8817V31.5044V31.461L38.1427 31.4549C36.598 31.2361 35.1313 30.6952 33.808 29.8543L33.7833 29.8385L33.7574 29.8525C31.726 30.9511 29.416 31.5677 27 31.5677C24.584 31.5677 22.2737 30.9511 20.2423 29.8523L20.2165 29.8384L20.1917 29.8541C18.8688 30.6952 17.4022 31.2361 15.8574 31.4549ZM36.6313 27.8044L36.5737 27.8572L36.6458 27.8873C37.6097 28.2902 38.6469 28.4999 39.7196 28.4999C44.1343 28.4999 47.726 24.9067 47.7255 20.4901C47.7255 16.0733 44.134 12.4799 39.7193 12.4799C39.273 12.4799 38.8137 12.5199 38.354 12.5986C37.7146 12.7077 37.075 12.4035 36.7575 11.8379C34.7758 8.30978 31.037 6.11784 26.9998 6.11784C22.9626 6.11784 19.2238 8.30962 17.2424 11.8377C16.9247 12.4033 16.2849 12.7075 15.6459 12.5985C15.1863 12.5199 14.7269 12.4799 14.2804 12.4799C9.86574 12.4799 6.27409 16.0733 6.27409 20.4901C6.27409 24.9067 9.86558 28.4999 14.2804 28.4999C15.3531 28.4999 16.3902 28.2902 17.3541 27.8873L17.4263 27.8572L17.3686 27.8044C15.4477 26.0435 13.9955 23.7545 13.2667 21.1242C13.0405 20.3078 13.5188 19.4623 14.3352 19.2361C15.1522 19.01 15.9971 19.4883 16.2232 20.3047C17.5605 25.13 21.9918 28.4999 27 28.4999C32.0081 28.4999 36.4396 25.13 37.7767 20.3047C38.0032 19.4884 38.8482 19.01 39.6647 19.2361C40.4811 19.4625 40.9594 20.3078 40.7333 21.1242C40.0042 23.7545 38.5522 26.0433 36.6313 27.8044Z" stroke="#6DD1FF" stroke-width="0.1"/>
</g>
<defs>
<filter id="filter0_dd" x="0.15625" y="0" width="53.6874" height="54" filterUnits="userSpaceOnUse" color-interpolation-filters="sRGB">
<feFlood flood-opacity="0" result="BackgroundImageFix"/>
<feColorMatrix in="SourceAlpha" type="matrix" values="0 0 0 0 0 0 0 0 0 0 0 0 0 0 0 0 0 0 127 0"/>
<feOffset/>
<feGaussianBlur stdDeviation="1.5"/>
<feColorMatrix type="matrix" values="0 0 0 0 0.133333 0 0 0 0 0.725352 0 0 0 0 1 0 0 0 1 0"/>
<feBlend mode="normal" in2="BackgroundImageFix" result="effect1_dropShadow"/>
<feColorMatrix in="SourceAlpha" type="matrix" values="0 0 0 0 0 0 0 0 0 0 0 0 0 0 0 0 0 0 127 0"/>
<feOffset/>
<feGaussianBlur stdDeviation="1"/>
<feColorMatrix type="matrix" values="0 0 0 0 0 0 0 0 0 0.684932 0 0 0 0 1 0 0 0 1 0"/>
<feBlend mode="normal" in2="effect1_dropShadow" result="effect2_dropShadow"/>
<feBlend mode="normal" in="SourceGraphic" in2="effect2_dropShadow" result="shape"/>
</filter>
</defs>
</svg>
