<svg width="52" height="52" viewBox="0 0 52 52" fill="none" xmlns="http://www.w3.org/2000/svg">
<g filter="url(#filter0_dd_4636_828)">
<mask id="path-1-inside-1_4636_828" fill="white">
<path fill-rule="evenodd" clip-rule="evenodd" d="M3.93878 7.53469C3.93878 6.68711 4.62588 6 5.47347 6H6.02185H45.642H46.5265C47.3741 6 48.0612 6.68711 48.0612 7.53469C48.0612 8.38228 47.3741 9.06939 46.5265 9.06939H44.8562L41.0591 23.9H46.4777H47.4C48.2837 23.9 49 24.6164 49 25.5C49 26.3837 48.2837 27.1 47.4 27.1H45.6584L41.2301 44.3961C41.0035 45.2811 40.2061 45.9 39.2926 45.9H12.3567C11.4432 45.9 10.6458 45.2811 10.4192 44.3961L5.9909 27.1H4.6C3.71634 27.1 3 26.3837 3 25.5C3 24.6164 3.71634 23.9 4.6 23.9H5.17161H10.6048L6.80771 9.06939H5.47347C4.62588 9.06939 3.93878 8.38228 3.93878 7.53469ZM37.9589 23.9H13.5939C13.4502 23.8416 13.3378 23.7178 13.2976 23.5604L9.62369 9.16531H42.0402L38.2543 23.5639C38.2134 23.7197 38.1015 23.8421 37.9589 23.9ZM42.7226 27.2H8.92668L12.7611 42.2237C12.8176 42.4451 13.017 42.6 13.2455 42.6H38.2879C38.5151 42.6 38.7137 42.4469 38.7715 42.2272L42.7226 27.2Z"/>
</mask>
<path fill-rule="evenodd" clip-rule="evenodd" d="M3.93878 7.53469C3.93878 6.68711 4.62588 6 5.47347 6H6.02185H45.642H46.5265C47.3741 6 48.0612 6.68711 48.0612 7.53469C48.0612 8.38228 47.3741 9.06939 46.5265 9.06939H44.8562L41.0591 23.9H46.4777H47.4C48.2837 23.9 49 24.6164 49 25.5C49 26.3837 48.2837 27.1 47.4 27.1H45.6584L41.2301 44.3961C41.0035 45.2811 40.2061 45.9 39.2926 45.9H12.3567C11.4432 45.9 10.6458 45.2811 10.4192 44.3961L5.9909 27.1H4.6C3.71634 27.1 3 26.3837 3 25.5C3 24.6164 3.71634 23.9 4.6 23.9H5.17161H10.6048L6.80771 9.06939H5.47347C4.62588 9.06939 3.93878 8.38228 3.93878 7.53469ZM37.9589 23.9H13.5939C13.4502 23.8416 13.3378 23.7178 13.2976 23.5604L9.62369 9.16531H42.0402L38.2543 23.5639C38.2134 23.7197 38.1015 23.8421 37.9589 23.9ZM42.7226 27.2H8.92668L12.7611 42.2237C12.8176 42.4451 13.017 42.6 13.2455 42.6H38.2879C38.5151 42.6 38.7137 42.4469 38.7715 42.2272L42.7226 27.2Z" fill="white"/>
<path d="M44.8562 9.06939V8.96939H44.7785L44.7593 9.04458L44.8562 9.06939ZM41.0591 23.9L40.9622 23.8752L40.9302 24H41.0591V23.9ZM45.6584 27.1V27H45.5808L45.5616 27.0752L45.6584 27.1ZM41.2301 44.3961L41.1333 44.3713L41.2301 44.3961ZM10.4192 44.3961L10.5161 44.3713L10.4192 44.3961ZM5.9909 27.1L6.08778 27.0752L6.06852 27H5.9909V27.1ZM10.6048 23.9V24H10.7336L10.7017 23.8752L10.6048 23.9ZM6.80771 9.06939L6.90458 9.04458L6.88533 8.96939H6.80771V9.06939ZM37.9589 23.9V24H37.9785L37.9966 23.9927L37.9589 23.9ZM13.5939 23.9L13.5563 23.9927L13.5744 24H13.5939V23.9ZM13.2976 23.5604L13.2007 23.5851V23.5851L13.2976 23.5604ZM9.62369 9.16531V9.06531H9.49496L9.52679 9.19004L9.62369 9.16531ZM42.0402 9.16531L42.1369 9.19074L42.1699 9.06531H42.0402V9.16531ZM38.2543 23.5639L38.1576 23.5385L38.2543 23.5639ZM8.92668 27.2V27.1H8.79796L8.82979 27.2247L8.92668 27.2ZM42.7226 27.2L42.8193 27.2254L42.8523 27.1H42.7226V27.2ZM12.7611 42.2237L12.858 42.1989L12.7611 42.2237ZM38.7715 42.2272L38.6748 42.2017V42.2017L38.7715 42.2272ZM5.47347 5.9C4.57065 5.9 3.83878 6.63188 3.83878 7.53469H4.03878C4.03878 6.74233 4.68111 6.1 5.47347 6.1V5.9ZM6.02185 5.9H5.47347V6.1H6.02185V5.9ZM45.642 5.9H6.02185V6.1H45.642V5.9ZM46.5265 5.9H45.642V6.1H46.5265V5.9ZM48.1612 7.53469C48.1612 6.63188 47.4293 5.9 46.5265 5.9V6.1C47.3189 6.1 47.9612 6.74233 47.9612 7.53469H48.1612ZM46.5265 9.16939C47.4293 9.16939 48.1612 8.43751 48.1612 7.53469H47.9612C47.9612 8.32705 47.3189 8.96939 46.5265 8.96939V9.16939ZM44.8562 9.16939H46.5265V8.96939H44.8562V9.16939ZM41.1559 23.9248L44.953 9.09419L44.7593 9.04458L40.9622 23.8752L41.1559 23.9248ZM46.4777 23.8H41.0591V24H46.4777V23.8ZM47.4 23.8H46.4777V24H47.4V23.8ZM49.1 25.5C49.1 24.5611 48.3389 23.8 47.4 23.8V24C48.2284 24 48.9 24.6716 48.9 25.5H49.1ZM47.4 27.2C48.3389 27.2 49.1 26.4389 49.1 25.5H48.9C48.9 26.3285 48.2284 27 47.4 27V27.2ZM45.6584 27.2H47.4V27H45.6584V27.2ZM41.327 44.4209L45.7553 27.1248L45.5616 27.0752L41.1333 44.3713L41.327 44.4209ZM39.2926 46C40.2518 46 41.0891 45.3501 41.327 44.4209L41.1333 44.3713C40.918 45.212 40.1605 45.8 39.2926 45.8V46ZM12.3567 46H39.2926V45.8H12.3567V46ZM10.3223 44.4209C10.5602 45.3501 11.3975 46 12.3567 46V45.8C11.4889 45.8 10.7313 45.212 10.5161 44.3713L10.3223 44.4209ZM5.89403 27.1248L10.3223 44.4209L10.5161 44.3713L6.08778 27.0752L5.89403 27.1248ZM4.6 27.2H5.9909V27H4.6V27.2ZM2.9 25.5C2.9 26.4389 3.66112 27.2 4.6 27.2V27C3.77157 27 3.1 26.3285 3.1 25.5H2.9ZM4.6 23.8C3.66112 23.8 2.9 24.5611 2.9 25.5H3.1C3.1 24.6716 3.77157 24 4.6 24V23.8ZM5.17161 23.8H4.6V24H5.17161V23.8ZM10.6048 23.8H5.17161V24H10.6048V23.8ZM6.71083 9.09419L10.5079 23.9248L10.7017 23.8752L6.90458 9.04458L6.71083 9.09419ZM5.47347 9.16939H6.80771V8.96939H5.47347V9.16939ZM3.83878 7.53469C3.83878 8.43751 4.57065 9.16939 5.47347 9.16939V8.96939C4.68111 8.96939 4.03878 8.32705 4.03878 7.53469H3.83878ZM37.9589 23.8H13.5939V24H37.9589V23.8ZM13.6316 23.8074C13.5165 23.7606 13.4267 23.6615 13.3945 23.5357L13.2007 23.5851C13.249 23.7741 13.3839 23.9226 13.5563 23.9927L13.6316 23.8074ZM13.3945 23.5357L9.72058 9.14058L9.52679 9.19004L13.2007 23.5851L13.3945 23.5357ZM9.62369 9.26531H42.0402V9.06531H9.62369V9.26531ZM41.9435 9.13988L38.1576 23.5385L38.351 23.5893L42.1369 9.19074L41.9435 9.13988ZM38.1576 23.5385C38.1249 23.6631 38.0355 23.761 37.9213 23.8074L37.9966 23.9927C38.1676 23.9231 38.3019 23.7764 38.351 23.5893L38.1576 23.5385ZM8.92668 27.3H42.7226V27.1H8.92668V27.3ZM12.858 42.1989L9.02358 27.1753L8.82979 27.2247L12.6642 42.2484L12.858 42.1989ZM13.2455 42.5C13.0627 42.5 12.9032 42.3761 12.858 42.1989L12.6642 42.2484C12.732 42.5141 12.9713 42.7 13.2455 42.7V42.5ZM38.2879 42.5H13.2455V42.7H38.2879V42.5ZM38.6748 42.2017C38.6286 42.3775 38.4697 42.5 38.2879 42.5V42.7C38.5605 42.7 38.7989 42.5162 38.8682 42.2526L38.6748 42.2017ZM42.6259 27.1746L38.6748 42.2017L38.8682 42.2526L42.8193 27.2254L42.6259 27.1746Z" fill="#26FF02" mask="url(#path-1-inside-1_4636_828)"/>
</g>
<defs>
<filter id="filter0_dd_4636_828" x="0" y="3" width="52" height="45.9" filterUnits="userSpaceOnUse" color-interpolation-filters="sRGB">
<feFlood flood-opacity="0" result="BackgroundImageFix"/>
<feColorMatrix in="SourceAlpha" type="matrix" values="0 0 0 0 0 0 0 0 0 0 0 0 0 0 0 0 0 0 127 0" result="hardAlpha"/>
<feOffset/>
<feGaussianBlur stdDeviation="1"/>
<feColorMatrix type="matrix" values="0 0 0 0 0.14902 0 0 0 0 1 0 0 0 0 0.00784314 0 0 0 1 0"/>
<feBlend mode="normal" in2="BackgroundImageFix" result="effect1_dropShadow_4636_828"/>
<feColorMatrix in="SourceAlpha" type="matrix" values="0 0 0 0 0 0 0 0 0 0 0 0 0 0 0 0 0 0 127 0" result="hardAlpha"/>
<feOffset/>
<feGaussianBlur stdDeviation="1.5"/>
<feColorMatrix type="matrix" values="0 0 0 0 0.14902 0 0 0 0 1 0 0 0 0 0.00784314 0 0 0 0.9 0"/>
<feBlend mode="normal" in2="effect1_dropShadow_4636_828" result="effect2_dropShadow_4636_828"/>
<feBlend mode="normal" in="SourceGraphic" in2="effect2_dropShadow_4636_828" result="shape"/>
</filter>
</defs>
</svg>
