<svg width="28" height="24" viewBox="0 0 28 24" fill="none" xmlns="http://www.w3.org/2000/svg">
<path d="M19.8906 11.5973C19.5119 12.006 19.0865 12.3833 18.5979 12.7239C21.387 14.0952 23.2699 16.6734 23.2699 19.6214C23.2699 21.2143 19.198 22.4622 13.9999 22.4622C8.80185 22.4622 4.72997 21.2143 4.72997 19.6214C4.72997 16.6734 6.61292 14.0952 9.40201 12.7239C8.91345 12.3833 8.48802 12.0061 8.10928 11.5973C5.0033 13.2785 2.93579 16.2467 2.93579 19.6214C2.93579 20.6437 3.58884 22.0684 6.70017 23.0503C8.64091 23.6628 11.2334 24 14 24C16.7666 24 19.3591 23.6628 21.2998 23.0503C24.4111 22.0684 25.0642 20.6437 25.0642 19.6214C25.0641 16.2467 22.9966 13.2785 19.8906 11.5973Z" fill="#e5e5e5"/>
<path d="M23.9167 17.5C23.9167 16.3 19.25 12.1667 18.0834 11C17.1111 11.5 16.8 12 14 12C11.2 12 11.2778 11 10.5 10.5L5.83336 14.5C5.25003 15 4.08336 17 4.08336 17.5C4.08336 18 3.50002 20 4.08336 20.5C4.66669 21 4.66669 21.5 7.00002 22.5C9.33336 23.5 16.3334 24 21 22.5C25.6667 21 23.9167 19 23.9167 17.5Z" fill="#none" fill-opacity="0.4"/>
<path d="M13.9999 12.6106C17.4868 12.6106 20.1719 9.72158 20.1719 6.30533C20.1719 2.88751 17.4855 0 13.9999 0C10.513 0 7.82788 2.88904 7.82788 6.30528C7.82788 9.7231 10.5144 12.6106 13.9999 12.6106Z" fill="#none" fill-opacity="0.4"/>
<path d="M13.9999 12.6106C17.4868 12.6106 20.1719 9.72158 20.1719 6.30533C20.1719 2.88751 17.4855 0 13.9999 0C10.513 0 7.82788 2.88904 7.82788 6.30528C7.82788 9.7231 10.5144 12.6106 13.9999 12.6106ZM13.9999 1.53786C16.4138 1.53786 18.3778 3.67651 18.3778 6.30528C18.3778 8.93405 16.4138 11.0727 13.9999 11.0727C11.586 11.0727 9.62205 8.93405 9.62205 6.30528C9.62205 3.67651 11.586 1.53786 13.9999 1.53786Z" fill="#e5e5e5"/>
</svg>
