<svg width="24" height="24" viewBox="0 0 24 24" fill="none" xmlns="http://www.w3.org/2000/svg">
<path d="M16.5959 15.3563C17.9887 13.6767 18.7494 11.5874 18.7494 9.37527C18.7494 4.20775 14.5419 0 9.3747 0C4.2075 0 0 4.20775 0 9.37527C0 14.5428 4.2075 18.7505 9.3747 18.7505C10.27 18.7505 11.1595 18.6218 12.0139 18.376C12.4762 18.2414 12.7454 17.7498 12.6108 17.2875C12.4762 16.8252 11.9905 16.556 11.5223 16.6906C10.8318 16.8954 10.1062 16.9949 9.3747 16.9949C5.17306 16.9949 1.75556 13.5772 1.75556 9.37527C1.75556 5.17337 5.17306 1.75567 9.3747 1.75567C13.5763 1.75567 16.9938 5.17337 16.9938 9.37527C16.9938 11.4119 16.2038 13.3255 14.7643 14.7652C14.419 15.1105 14.419 15.6664 14.7643 16.0059L22.5005 23.7425C22.6702 23.9122 22.8984 24 23.1208 24C23.3431 24 23.5714 23.9122 23.7411 23.7425C24.0863 23.3972 24.0863 22.8413 23.7411 22.5018L16.5959 15.3563Z" fill="#E5E5E5"/>
</svg>
