<svg width="20" height="20" viewBox="0 0 20 20" fill="none" xmlns="http://www.w3.org/2000/svg">
<path d="M14.1839 12.5698L13.7498 12.0837L13.3332 11.667C14.388 10.4399 14.7221 9.45901 14.7221 7.72602C14.7221 3.86178 11.5898 0.729492 7.72553 0.729492C3.8613 0.729492 0.729004 3.86178 0.729004 7.72602C0.729004 11.5903 3.8613 14.7225 7.72553 14.7225C9.45852 14.7225 10.4394 14.3885 11.6665 13.3337L12.0832 13.7503L12.5693 14.1844L17.1485 18.7544C17.592 19.197 18.3101 19.1966 18.7531 18.7536C19.1961 18.3106 19.1965 17.5925 18.7539 17.149L14.1839 12.5698ZM7.72553 12.5698C5.04532 12.5698 2.88178 10.4062 2.88178 7.72602C2.88178 5.04581 5.04532 2.88227 7.72553 2.88227C10.4057 2.88227 12.5693 5.04581 12.5693 7.72602C12.5693 10.4062 10.4057 12.5698 7.72553 12.5698Z" fill="white"/>
</svg>
