<svg width="28" height="28" viewBox="0 0 28 28" fill="none" xmlns="http://www.w3.org/2000/svg">
<path d="M26.7497 10.9953C26.5438 10.3004 25.9478 9.79207 25.229 9.69835L18.4077 8.75605L15.7083 2.30592C15.3142 1.3618 14.2293 0.915972 13.2852 1.31008C12.8351 1.498 12.4773 1.8558 12.2894 2.30586L9.59002 8.756L2.76865 9.6983C1.75229 9.83981 1.04309 10.7784 1.18461 11.7947C1.2454 12.2315 1.45954 12.6323 1.78876 12.9257L6.92817 17.5087L5.87223 24.7004C5.75784 25.4307 6.09324 26.1582 6.72285 26.5455C7.3436 26.9425 8.14207 26.9276 8.74762 26.5079L13.9988 22.9368L19.2501 26.5116C20.0974 27.0867 21.2506 26.866 21.8257 26.0187C22.0871 25.6336 22.1941 25.1643 22.1255 24.7041L21.0696 17.5096L26.209 12.9266C26.7547 12.4461 26.9666 11.6894 26.7497 10.9953Z" fill="#FFD130"/>
</svg>
