<svg width="28" height="28" viewBox="0 0 28 28" fill="none" xmlns="http://www.w3.org/2000/svg">
<path d="M26.3601 10.3034C26.0667 9.97419 25.6659 9.76006 25.2291 9.69927V9.69835L18.4077 8.75605L15.7083 2.3059C15.3142 1.36177 14.2293 0.915948 13.2852 1.31011C12.8351 1.49803 12.4773 1.85583 12.2894 2.3059L9.59003 8.75605L2.76864 9.69835C1.75234 9.83982 1.04313 10.7785 1.1846 11.7948C1.24539 12.2315 1.45952 12.6324 1.78875 12.9257L6.92818 17.5088L5.87218 24.7004C5.75779 25.4307 6.09319 26.1582 6.7228 26.5455C7.34355 26.9425 8.14202 26.9277 8.74757 26.5079L13.9988 22.9368L19.2501 26.5116C20.0974 27.0867 21.2506 26.866 21.8257 26.0187C22.0871 25.6336 22.1941 25.1643 22.1255 24.7041L21.0696 17.5096L26.209 12.9266C26.9751 12.244 27.0427 11.0695 26.3601 10.3034ZM19.4801 16.4739C19.2502 16.6793 19.139 16.9865 19.1841 17.2915L20.284 24.991L14.5167 21.0698C14.2058 20.8585 13.7974 20.8585 13.4865 21.0698L7.68524 24.9672L8.81358 17.2879C8.8574 16.9841 8.74623 16.6785 8.51749 16.4739L3.01785 11.5169L10.358 10.504C10.6794 10.4597 10.9534 10.2488 11.0785 9.94949L14.0098 2.9998C14.0131 3.00388 14.0156 3.00855 14.0171 3.01355L16.9182 9.94584C17.0433 10.2451 17.3173 10.4561 17.6386 10.5004L24.988 11.5581L19.4801 16.4739Z" fill="#2e2e2e"/>
</svg>
