<svg width="28" height="28" viewBox="0 0 20 20" fill="none" xmlns="http://www.w3.org/2000/svg">
<path d="M18.8286 7.35929C18.619 7.12413 18.3327 6.97118 18.0207 6.92775V6.9271L13.1483 6.25403L11.2202 1.64677C10.9386 0.972399 10.1637 0.653952 9.48938 0.935494C9.1679 1.06972 8.9123 1.3253 8.7781 1.64677L6.84997 6.25403L1.97755 6.9271C1.25162 7.02814 0.745041 7.69861 0.846087 8.42454C0.889514 8.7365 1.04246 9.02284 1.27763 9.23238L4.94865 12.506L4.19436 17.6428C4.11265 18.1645 4.35223 18.6842 4.80195 18.9608C5.24534 19.2443 5.81568 19.2337 6.24821 18.9339L9.9991 16.3831L13.75 18.9365C14.3552 19.3473 15.1789 19.1897 15.5897 18.5845C15.7764 18.3094 15.8529 17.9742 15.8039 17.6455L15.0496 12.5066L18.7207 9.23299C19.2679 8.7454 19.3162 7.90649 18.8286 7.35929ZM13.9143 11.7668C13.7501 11.9135 13.6707 12.1329 13.7028 12.3508L14.4885 17.8504L10.369 15.0495C10.147 14.8986 9.85521 14.8986 9.63313 15.0495L5.4894 17.8334L6.29536 12.3482C6.32667 12.1312 6.24725 11.913 6.08387 11.7668L2.15555 8.22605L7.39855 7.50257C7.62811 7.47092 7.8238 7.32027 7.91315 7.10648L10.0069 2.14242C10.0093 2.14533 10.0111 2.14867 10.0122 2.15224L12.0844 7.10387C12.1737 7.31767 12.3694 7.46832 12.599 7.49996L17.8485 8.25551L13.9143 11.7668Z" fill="#DADADA"/>
</svg>
