<svg width="20" height="20" viewBox="0 0 20 20" fill="none" xmlns="http://www.w3.org/2000/svg">
<path d="M18.8288 7.35929C18.6193 7.12413 18.3329 6.97118 18.021 6.92775V6.9271L13.1486 6.25403L11.2204 1.64677C10.9389 0.972399 10.164 0.653952 9.48963 0.935494C9.16815 1.06972 8.91254 1.3253 8.77835 1.64677L6.85021 6.25403L1.97779 6.9271C1.25186 7.02814 0.745285 7.69861 0.846332 8.42454C0.889758 8.7365 1.04271 9.02284 1.27787 9.23238L4.94889 12.506L4.19461 17.6428C4.1129 18.1645 4.35247 18.6842 4.80219 18.9608C5.24559 19.2443 5.81592 19.2337 6.24846 18.9339L9.99935 16.3831L13.7502 18.9365C14.3555 19.3473 15.1792 19.1897 15.59 18.5845C15.7767 18.3094 15.8531 17.9742 15.8041 17.6455L15.0499 12.5066L18.7209 9.23299C19.2681 8.7454 19.3164 7.90649 18.8288 7.35929ZM13.9146 11.7668C13.7504 11.9135 13.6709 12.1329 13.7031 12.3508L14.4888 17.8504L10.3693 15.0495C10.1472 14.8986 9.85545 14.8986 9.63337 15.0495L5.48965 17.8334L6.29561 12.3482C6.32691 12.1312 6.2475 11.913 6.08411 11.7668L2.1558 8.22605L7.3988 7.50257C7.62836 7.47092 7.82404 7.32027 7.91339 7.10648L10.0072 2.14242C10.0096 2.14533 10.0113 2.14867 10.0124 2.15224L12.0846 7.10387C12.174 7.31767 12.3697 7.46832 12.5992 7.49996L17.8488 8.25551L13.9146 11.7668Z" fill="#FFD130"/>
<mask id="mask0" mask-type="alpha" maskUnits="userSpaceOnUse" x="0" y="0" width="11" height="20">
<rect x="0.833496" width="9.16667" height="19.1667" fill="#C4C4C4"/>
</mask>
<g mask="url(#mask0)">
<path d="M18.8288 7.35929C18.6193 7.12413 18.3329 6.97118 18.021 6.92775L13.1486 6.25403L11.2204 1.64677C10.9389 0.972399 10.164 0.653952 9.48963 0.935494C9.16815 1.06972 8.91254 1.3253 8.77835 1.64677L6.85021 6.25403L1.97779 6.9271C1.25186 7.02814 0.745285 7.6986 0.846332 8.42454C0.889758 8.7365 1.04271 9.02284 1.27787 9.23237L4.94889 12.506L4.19461 17.6428C4.1129 18.1645 4.35247 18.6842 4.80219 18.9608C5.24559 19.2443 5.81592 19.2337 6.24846 18.9339L9.99935 16.3831L13.7502 18.9365C14.3555 19.3473 15.1792 19.1897 15.59 18.5845C15.7767 18.3094 15.8531 17.9742 15.8041 17.6455L15.0499 12.5066L18.7209 9.23299C19.2681 8.7454 19.3164 7.90649 18.8288 7.35929Z" fill="#FFD130"/>
</g>
</svg>
